<svg xmlns="http://www.w3.org/2000/svg" version="1.1" xmlns:xlink="http://www.w3.org/1999/xlink" xmlns:svgjs="http://svgjs.com/svgjs" width="1440" height="560" preserveAspectRatio="none" viewBox="0 0 1440 560"><g mask="url(&quot;#SvgjsMask1012&quot;)" fill="none"><path d="M965.6335707351037 307.7340244678029L1036.286673493894 353.6166858823253 1069.7841142362827 224.69570103687846z" fill="rgba(28, 83, 142, 0.4)" class="triangle-float1"></path><path d="M497.8361873525697-48.618649758689514L363.6019195505157 0.09380302139794594 457.8118320625866 81.98923053896816z" fill="rgba(28, 83, 142, 0.4)" class="triangle-float2"></path><path d="M1000.311,665.531C1044.995,664.905,1072.519,622.654,1095.403,584.27C1119.111,544.504,1144.403,499.507,1124.098,457.9C1101.932,412.479,1050.852,389.599,1000.311,389.419C949.439,389.237,897.924,411.605,874.984,457.011C853.643,499.252,876.11,546.437,900.49,587C923.865,625.892,954.939,666.167,1000.311,665.531" fill="rgba(28, 83, 142, 0.4)" class="triangle-float2"></path><path d="M1112.3328247848128 380.78334615461085L1013.1551646435951 464.00328420013227 1096.3751026891166 563.18094434135 1195.5527628303344 479.9610062958286z" fill="rgba(28, 83, 142, 0.4)" class="triangle-float3"></path><path d="M741.7239764843036 416.6971011709976L646.3000107363398 302.75489428130135 599.7411399872169 424.0448993343334z" fill="rgba(28, 83, 142, 0.4)" class="triangle-float2"></path><path d="M67.54532751412741 139.88203361620117L157.3787249640929 40.11193815864459 57.60862950653632-49.72145929132091-32.22476794342917 50.04863616623568z" fill="rgba(28, 83, 142, 0.4)" class="triangle-float2"></path><path d="M1157.4518430485728 101.88112257137477L1082.5242951358287 169.3461897413297 1221.185669847133 248.00497802546835z" fill="rgba(28, 83, 142, 0.4)" class="triangle-float3"></path><path d="M980.4516621959833 236.60009092380596L1069.3320036353853 228.82406863754488 972.6756399097222 147.71974948440408z" fill="rgba(28, 83, 142, 0.4)" class="triangle-float3"></path><path d="M193.257,211.675C222.02,211.27,246.778,194.289,262.124,169.958C278.753,143.594,289.665,110.529,274.08,83.535C258.495,56.54,224.382,48.987,193.257,50.674C165.275,52.191,140.66,67.476,126.309,91.545C111.566,116.271,106.934,146.798,120.948,171.945C135.297,197.693,163.784,212.09,193.257,211.675" fill="rgba(28, 83, 142, 0.4)" class="triangle-float2"></path><path d="M68.69043995821804 333.23760307868986L22.48667909710926 369.3359373300277 99.73606090467052 420.59241149602195z" fill="rgba(28, 83, 142, 0.4)" class="triangle-float3"></path><path d="M1008.311,470.937C1045.229,469.919,1078.164,451.689,1098.89,421.121C1122.999,385.565,1142.172,341.112,1122.088,303.137C1101.104,263.459,1053.181,248.685,1008.311,249.853C965.627,250.964,925.343,271.622,904.35,308.803C883.685,345.402,885.959,390.987,908.646,426.368C929.7,459.203,969.321,472.012,1008.311,470.937" fill="rgba(28, 83, 142, 0.4)" class="triangle-float1"></path><path d="M1206.939754689523 185.05966190919156L1087.4043192691784 101.36004894468641 1003.7047063046732 220.895484365031 1123.2401417250178 304.59509732953615z" fill="rgba(28, 83, 142, 0.4)" class="triangle-float2"></path><path d="M43.89649182263547 502.92119591033094L80.79542085556827 599.0461924329367 206.5334511230104 495.6353006222346z" fill="rgba(28, 83, 142, 0.4)" class="triangle-float1"></path><path d="M1189.142,538.6C1216.581,539.333,1241.164,521.699,1254.021,497.447C1266.12,474.627,1262.013,447.741,1249.203,425.312C1236.272,402.671,1215.215,384.095,1189.142,383.851C1162.708,383.603,1139.591,400.871,1127.098,424.168C1115.275,446.216,1118.078,472.14,1130.002,494.133C1142.602,517.372,1162.716,537.894,1189.142,538.6" fill="rgba(28, 83, 142, 0.4)" class="triangle-float2"></path><path d="M875.8554412583306 655.4046526809649L927.6886075355102 495.8785701500219 716.3293587273877 603.5714864037853z" fill="rgba(28, 83, 142, 0.4)" class="triangle-float2"></path><path d="M483.66879402151704 269.3299069122053L410.7072270671124 313.16963919764964 454.54695935255677 386.13120615205423 527.5085263069614 342.29147386660986z" fill="rgba(28, 83, 142, 0.4)" class="triangle-float1"></path><path d="M1291.606,525.978C1331.339,524.192,1359.773,492.722,1380.247,458.623C1401.554,423.136,1420.55,380.788,1400.537,344.556C1380.084,307.527,1333.907,297.795,1291.606,298.149C1250.063,298.496,1207.487,310.926,1185.785,346.351C1163.215,383.192,1166.071,430.038,1188.001,467.264C1209.596,503.921,1249.104,527.888,1291.606,525.978" fill="rgba(28, 83, 142, 0.4)" class="triangle-float2"></path><path d="M106.76442436051187 110.84027839886805L241.70404402943893 165.5090740077474 226.19356817300036 39.18638537017509z" fill="rgba(28, 83, 142, 0.4)" class="triangle-float1"></path></g><defs><mask id="SvgjsMask1012"><rect width="1440" height="560" fill="#ffffff"></rect></mask><style>
            @keyframes float1 {
                0%{transform: translate(0, 0)}
                50%{transform: translate(-10px, 0)}
                100%{transform: translate(0, 0)}
            }

            .triangle-float1 {
                animation: float1 5s infinite;
            }

            @keyframes float2 {
                0%{transform: translate(0, 0)}
                50%{transform: translate(-5px, -5px)}
                100%{transform: translate(0, 0)}
            }

            .triangle-float2 {
                animation: float2 4s infinite;
            }

            @keyframes float3 {
                0%{transform: translate(0, 0)}
                50%{transform: translate(0, -10px)}
                100%{transform: translate(0, 0)}
            }

            .triangle-float3 {
                animation: float3 6s infinite;
            }
        </style></defs></svg>