<svg xmlns="http://www.w3.org/2000/svg" version="1.1" xmlns:xlink="http://www.w3.org/1999/xlink" xmlns:svgjs="http://svgjs.com/svgjs" width="1440" height="560" preserveAspectRatio="none" viewBox="0 0 1440 560"><g mask="url(&quot;#SvgjsMask1002&quot;)" fill="none"><path d="M-50.39 398.47L-50.39 398.47" stroke="#132e65" stroke-width="1.5"></path><path d="M-50.39 398.47L46.22 353.95" stroke="#132e65" stroke-width="1.5"></path><path d="M-50.39 398.47L-105.42 535.31" stroke="#132e65" stroke-width="1.5"></path><path d="M-50.39 398.47L72.89 528.54" stroke="#132e65" stroke-width="1.5"></path><path d="M-50.39 398.47L-87.71 663.62" stroke="#132e65" stroke-width="1.5"></path><path d="M-50.39 398.47L229.93 345.54" stroke="#132e65" stroke-width="1.5"></path><path d="M-105.42 535.31L-105.42 535.31" stroke="#132e65" stroke-width="1.5"></path><path d="M-105.42 535.31L-87.71 663.62" stroke="#132e65" stroke-width="1.5"></path><path d="M-105.42 535.31L72.89 528.54" stroke="#132e65" stroke-width="1.5"></path><path d="M-105.42 535.31L82.12 674.46" stroke="#132e65" stroke-width="1.5"></path><path d="M-105.42 535.31L46.22 353.95" stroke="#132e65" stroke-width="1.5"></path><path d="M-105.42 535.31L238.35 509.56" stroke="#132e65" stroke-width="1.5"></path><path d="M-87.71 663.62L-87.71 663.62" stroke="#132e65" stroke-width="1.5"></path><path d="M-87.71 663.62L82.12 674.46" stroke="#132e65" stroke-width="1.5"></path><path d="M-87.71 663.62L72.89 528.54" stroke="#132e65" stroke-width="1.5"></path><path d="M-87.71 663.62L46.22 353.95" stroke="#132e65" stroke-width="1.5"></path><path d="M-87.71 663.62L261.42 682.72" stroke="#132e65" stroke-width="1.5"></path><path d="M46.22 353.95L46.22 353.95" stroke="#132e65" stroke-width="1.5"></path><path d="M46.22 353.95L72.89 528.54" stroke="#132e65" stroke-width="1.5"></path><path d="M46.22 353.95L229.93 345.54" stroke="#132e65" stroke-width="1.5"></path><path d="M46.22 353.95L238.35 509.56" stroke="#132e65" stroke-width="1.5"></path><path d="M46.22 353.95L82.12 674.46" stroke="#132e65" stroke-width="1.5"></path><path d="M72.89 528.54L72.89 528.54" stroke="#132e65" stroke-width="1.5"></path><path d="M72.89 528.54L82.12 674.46" stroke="#132e65" stroke-width="1.5"></path><path d="M72.89 528.54L238.35 509.56" stroke="#132e65" stroke-width="1.5"></path><path d="M82.12 674.46L82.12 674.46" stroke="#132e65" stroke-width="1.5"></path><path d="M82.12 674.46L261.42 682.72" stroke="#132e65" stroke-width="1.5"></path><path d="M82.12 674.46L238.35 509.56" stroke="#132e65" stroke-width="1.5"></path><path d="M82.12 674.46L367.25 710.4" stroke="#132e65" stroke-width="1.5"></path><path d="M229.93 345.54L229.93 345.54" stroke="#132e65" stroke-width="1.5"></path><path d="M229.93 345.54L238.35 509.56" stroke="#132e65" stroke-width="1.5"></path><path d="M229.93 345.54L403.61 376.83" stroke="#132e65" stroke-width="1.5"></path><path d="M229.93 345.54L371.82 537.95" stroke="#132e65" stroke-width="1.5"></path><path d="M229.93 345.54L72.89 528.54" stroke="#132e65" stroke-width="1.5"></path><path d="M238.35 509.56L238.35 509.56" stroke="#132e65" stroke-width="1.5"></path><path d="M238.35 509.56L371.82 537.95" stroke="#132e65" stroke-width="1.5"></path><path d="M238.35 509.56L261.42 682.72" stroke="#132e65" stroke-width="1.5"></path><path d="M238.35 509.56L403.61 376.83" stroke="#132e65" stroke-width="1.5"></path><path d="M261.42 682.72L261.42 682.72" stroke="#132e65" stroke-width="1.5"></path><path d="M261.42 682.72L367.25 710.4" stroke="#132e65" stroke-width="1.5"></path><path d="M261.42 682.72L371.82 537.95" stroke="#132e65" stroke-width="1.5"></path><path d="M261.42 682.72L72.89 528.54" stroke="#132e65" stroke-width="1.5"></path><path d="M403.61 376.83L403.61 376.83" stroke="#132e65" stroke-width="1.5"></path><path d="M403.61 376.83L536.35 351.68" stroke="#132e65" stroke-width="1.5"></path><path d="M403.61 376.83L371.82 537.95" stroke="#132e65" stroke-width="1.5"></path><path d="M403.61 376.83L530.25 536.68" stroke="#132e65" stroke-width="1.5"></path><path d="M403.61 376.83L689.9 403.73" stroke="#132e65" stroke-width="1.5"></path><path d="M371.82 537.95L371.82 537.95" stroke="#132e65" stroke-width="1.5"></path><path d="M371.82 537.95L530.25 536.68" stroke="#132e65" stroke-width="1.5"></path><path d="M371.82 537.95L367.25 710.4" stroke="#132e65" stroke-width="1.5"></path><path d="M367.25 710.4L367.25 710.4" stroke="#132e65" stroke-width="1.5"></path><path d="M367.25 710.4L517.76 702.43" stroke="#132e65" stroke-width="1.5"></path><path d="M536.35 351.68L536.35 351.68" stroke="#132e65" stroke-width="1.5"></path><path d="M536.35 351.68L689.9 403.73" stroke="#132e65" stroke-width="1.5"></path><path d="M536.35 351.68L697.47 261.19" stroke="#132e65" stroke-width="1.5"></path><path d="M536.35 351.68L530.25 536.68" stroke="#132e65" stroke-width="1.5"></path><path d="M536.35 351.68L371.82 537.95" stroke="#132e65" stroke-width="1.5"></path><path d="M530.25 536.68L530.25 536.68" stroke="#132e65" stroke-width="1.5"></path><path d="M530.25 536.68L517.76 702.43" stroke="#132e65" stroke-width="1.5"></path><path d="M530.25 536.68L679.48 669.32" stroke="#132e65" stroke-width="1.5"></path><path d="M530.25 536.68L689.9 403.73" stroke="#132e65" stroke-width="1.5"></path><path d="M517.76 702.43L517.76 702.43" stroke="#132e65" stroke-width="1.5"></path><path d="M517.76 702.43L679.48 669.32" stroke="#132e65" stroke-width="1.5"></path><path d="M697.47 261.19L697.47 261.19" stroke="#132e65" stroke-width="1.5"></path><path d="M697.47 261.19L689.9 403.73" stroke="#132e65" stroke-width="1.5"></path><path d="M697.47 261.19L840.66 237.77" stroke="#132e65" stroke-width="1.5"></path><path d="M697.47 261.19L813.91 365.2" stroke="#132e65" stroke-width="1.5"></path><path d="M697.47 261.19L837.23 86.83" stroke="#132e65" stroke-width="1.5"></path><path d="M697.47 261.19L856.7 506.47" stroke="#132e65" stroke-width="1.5"></path><path d="M689.9 403.73L689.9 403.73" stroke="#132e65" stroke-width="1.5"></path><path d="M689.9 403.73L813.91 365.2" stroke="#132e65" stroke-width="1.5"></path><path d="M679.48 669.32L679.48 669.32" stroke="#132e65" stroke-width="1.5"></path><path d="M679.48 669.32L822.95 684.02" stroke="#132e65" stroke-width="1.5"></path><path d="M837.23 86.83L837.23 86.83" stroke="#132e65" stroke-width="1.5"></path><path d="M837.23 86.83L965.41 99.75" stroke="#132e65" stroke-width="1.5"></path><path d="M837.23 86.83L840.66 237.77" stroke="#132e65" stroke-width="1.5"></path><path d="M837.23 86.83L963.84 -44.92" stroke="#132e65" stroke-width="1.5"></path><path d="M837.23 86.83L1099.06 87.39" stroke="#132e65" stroke-width="1.5"></path><path d="M837.23 86.83L813.91 365.2" stroke="#132e65" stroke-width="1.5"></path><path d="M840.66 237.77L840.66 237.77" stroke="#132e65" stroke-width="1.5"></path><path d="M840.66 237.77L813.91 365.2" stroke="#132e65" stroke-width="1.5"></path><path d="M813.91 365.2L813.91 365.2" stroke="#132e65" stroke-width="1.5"></path><path d="M856.7 506.47L856.7 506.47" stroke="#132e65" stroke-width="1.5"></path><path d="M856.7 506.47L975.78 543.77" stroke="#132e65" stroke-width="1.5"></path><path d="M856.7 506.47L813.91 365.2" stroke="#132e65" stroke-width="1.5"></path><path d="M822.95 684.02L822.95 684.02" stroke="#132e65" stroke-width="1.5"></path><path d="M963.84 -44.92L963.84 -44.92" stroke="#132e65" stroke-width="1.5"></path><path d="M963.84 -44.92L965.41 99.75" stroke="#132e65" stroke-width="1.5"></path><path d="M963.84 -44.92L1115.39 -61.65" stroke="#132e65" stroke-width="1.5"></path><path d="M963.84 -44.92L1099.06 87.39" stroke="#132e65" stroke-width="1.5"></path><path d="M965.41 99.75L965.41 99.75" stroke="#132e65" stroke-width="1.5"></path><path d="M965.41 99.75L1099.06 87.39" stroke="#132e65" stroke-width="1.5"></path><path d="M965.41 99.75L840.66 237.77" stroke="#132e65" stroke-width="1.5"></path><path d="M977.3 378.04L977.3 378.04" stroke="#132e65" stroke-width="1.5"></path><path d="M977.3 378.04L813.91 365.2" stroke="#132e65" stroke-width="1.5"></path><path d="M977.3 378.04L975.78 543.77" stroke="#132e65" stroke-width="1.5"></path><path d="M977.3 378.04L1143.78 342.37" stroke="#132e65" stroke-width="1.5"></path><path d="M977.3 378.04L856.7 506.47" stroke="#132e65" stroke-width="1.5"></path><path d="M977.3 378.04L840.66 237.77" stroke="#132e65" stroke-width="1.5"></path><path d="M977.3 378.04L1147.31 239.65" stroke="#132e65" stroke-width="1.5"></path><path d="M975.78 543.77L975.78 543.77" stroke="#132e65" stroke-width="1.5"></path><path d="M975.78 543.77L979.08 639.99" stroke="#132e65" stroke-width="1.5"></path><path d="M975.78 543.77L1116.64 672.99" stroke="#132e65" stroke-width="1.5"></path><path d="M979.08 639.99L979.08 639.99" stroke="#132e65" stroke-width="1.5"></path><path d="M979.08 639.99L1116.64 672.99" stroke="#132e65" stroke-width="1.5"></path><path d="M979.08 639.99L822.95 684.02" stroke="#132e65" stroke-width="1.5"></path><path d="M979.08 639.99L856.7 506.47" stroke="#132e65" stroke-width="1.5"></path><path d="M979.08 639.99L977.3 378.04" stroke="#132e65" stroke-width="1.5"></path><path d="M979.08 639.99L679.48 669.32" stroke="#132e65" stroke-width="1.5"></path><path d="M1115.39 -61.65L1115.39 -61.65" stroke="#132e65" stroke-width="1.5"></path><path d="M1115.39 -61.65L1099.06 87.39" stroke="#132e65" stroke-width="1.5"></path><path d="M1115.39 -61.65L1299.94 -39.18" stroke="#132e65" stroke-width="1.5"></path><path d="M1099.06 87.39L1099.06 87.39" stroke="#132e65" stroke-width="1.5"></path><path d="M1147.31 239.65L1147.31 239.65" stroke="#132e65" stroke-width="1.5"></path><path d="M1147.31 239.65L1143.78 342.37" stroke="#132e65" stroke-width="1.5"></path><path d="M1147.31 239.65L1279.63 257.7" stroke="#132e65" stroke-width="1.5"></path><path d="M1143.78 342.37L1143.78 342.37" stroke="#132e65" stroke-width="1.5"></path><path d="M1143.78 342.37L1298.81 353.21" stroke="#132e65" stroke-width="1.5"></path><path d="M1143.78 342.37L1279.63 257.7" stroke="#132e65" stroke-width="1.5"></path><path d="M1143.78 342.37L1099.06 87.39" stroke="#132e65" stroke-width="1.5"></path><path d="M1116.64 672.99L1116.64 672.99" stroke="#132e65" stroke-width="1.5"></path><path d="M1116.64 672.99L1302 642.55" stroke="#132e65" stroke-width="1.5"></path><path d="M1299.94 -39.18L1299.94 -39.18" stroke="#132e65" stroke-width="1.5"></path><path d="M1299.94 -39.18L1388.47 -44.32" stroke="#132e65" stroke-width="1.5"></path><path d="M1299.94 -39.18L1274.62 88.73" stroke="#132e65" stroke-width="1.5"></path><path d="M1299.94 -39.18L1414.63 53.85" stroke="#132e65" stroke-width="1.5"></path><path d="M1299.94 -39.18L1099.06 87.39" stroke="#132e65" stroke-width="1.5"></path><path d="M1299.94 -39.18L1411.99 212.58" stroke="#132e65" stroke-width="1.5"></path><path d="M1274.62 88.73L1274.62 88.73" stroke="#132e65" stroke-width="1.5"></path><path d="M1274.62 88.73L1414.63 53.85" stroke="#132e65" stroke-width="1.5"></path><path d="M1279.63 257.7L1279.63 257.7" stroke="#132e65" stroke-width="1.5"></path><path d="M1279.63 257.7L1298.81 353.21" stroke="#132e65" stroke-width="1.5"></path><path d="M1298.81 353.21L1298.81 353.21" stroke="#132e65" stroke-width="1.5"></path><path d="M1298.81 353.21L1421.22 401.4" stroke="#132e65" stroke-width="1.5"></path><path d="M1298.81 353.21L1411.99 212.58" stroke="#132e65" stroke-width="1.5"></path><path d="M1302 642.55L1302 642.55" stroke="#132e65" stroke-width="1.5"></path><path d="M1302 642.55L1407.1 547.02" stroke="#132e65" stroke-width="1.5"></path><path d="M1302 642.55L1421.22 401.4" stroke="#132e65" stroke-width="1.5"></path><path d="M1388.47 -44.32L1388.47 -44.32" stroke="#132e65" stroke-width="1.5"></path><path d="M1388.47 -44.32L1414.63 53.85" stroke="#132e65" stroke-width="1.5"></path><path d="M1414.63 53.85L1414.63 53.85" stroke="#132e65" stroke-width="1.5"></path><path d="M1414.63 53.85L1565.4 74.16" stroke="#132e65" stroke-width="1.5"></path><path d="M1414.63 53.85L1411.99 212.58" stroke="#132e65" stroke-width="1.5"></path><path d="M1411.99 212.58L1411.99 212.58" stroke="#132e65" stroke-width="1.5"></path><path d="M1411.99 212.58L1545.33 239.97" stroke="#132e65" stroke-width="1.5"></path><path d="M1411.99 212.58L1279.63 257.7" stroke="#132e65" stroke-width="1.5"></path><path d="M1411.99 212.58L1274.62 88.73" stroke="#132e65" stroke-width="1.5"></path><path d="M1421.22 401.4L1421.22 401.4" stroke="#132e65" stroke-width="1.5"></path><path d="M1421.22 401.4L1407.1 547.02" stroke="#132e65" stroke-width="1.5"></path><path d="M1421.22 401.4L1561.41 355.62" stroke="#132e65" stroke-width="1.5"></path><path d="M1421.22 401.4L1411.99 212.58" stroke="#132e65" stroke-width="1.5"></path><path d="M1421.22 401.4L1279.63 257.7" stroke="#132e65" stroke-width="1.5"></path><path d="M1407.1 547.02L1407.1 547.02" stroke="#132e65" stroke-width="1.5"></path><path d="M1407.1 547.02L1605.94 496.38" stroke="#132e65" stroke-width="1.5"></path><path d="M1407.1 547.02L1298.81 353.21" stroke="#132e65" stroke-width="1.5"></path><path d="M1407.1 547.02L1598.2 683.27" stroke="#132e65" stroke-width="1.5"></path><path d="M1579.43 -59.53L1579.43 -59.53" stroke="#132e65" stroke-width="1.5"></path><path d="M1579.43 -59.53L1565.4 74.16" stroke="#132e65" stroke-width="1.5"></path><path d="M1579.43 -59.53L1388.47 -44.32" stroke="#132e65" stroke-width="1.5"></path><path d="M1565.4 74.16L1565.4 74.16" stroke="#132e65" stroke-width="1.5"></path><path d="M1565.4 74.16L1545.33 239.97" stroke="#132e65" stroke-width="1.5"></path><path d="M1545.33 239.97L1545.33 239.97" stroke="#132e65" stroke-width="1.5"></path><path d="M1545.33 239.97L1561.41 355.62" stroke="#132e65" stroke-width="1.5"></path><path d="M1545.33 239.97L1421.22 401.4" stroke="#132e65" stroke-width="1.5"></path><path d="M1545.33 239.97L1414.63 53.85" stroke="#132e65" stroke-width="1.5"></path><path d="M1545.33 239.97L1605.94 496.38" stroke="#132e65" stroke-width="1.5"></path><path d="M1561.41 355.62L1561.41 355.62" stroke="#132e65" stroke-width="1.5"></path><path d="M1561.41 355.62L1605.94 496.38" stroke="#132e65" stroke-width="1.5"></path><path d="M1561.41 355.62L1411.99 212.58" stroke="#132e65" stroke-width="1.5"></path><path d="M1561.41 355.62L1407.1 547.02" stroke="#132e65" stroke-width="1.5"></path><path d="M1605.94 496.38L1605.94 496.38" stroke="#132e65" stroke-width="1.5"></path><path d="M1605.94 496.38L1598.2 683.27" stroke="#132e65" stroke-width="1.5"></path><path d="M1598.2 683.27L1598.2 683.27" stroke="#132e65" stroke-width="1.5"></path><path d="M1598.2 683.27L1302 642.55" stroke="#132e65" stroke-width="1.5"></path><path d="M1598.2 683.27L1561.41 355.62" stroke="#132e65" stroke-width="1.5"></path><path d="M1598.2 683.27L1421.22 401.4" stroke="#132e65" stroke-width="1.5"></path><circle r="5" cx="-50.39" cy="398.47" fill="#132e65"></circle><circle r="5" cx="-105.42" cy="535.31" fill="#132e65"></circle><circle r="5" cx="-87.71" cy="663.62" fill="#132e65"></circle><circle r="5" cx="46.22" cy="353.95" fill="#132e65"></circle><circle r="5" cx="72.89" cy="528.54" fill="#132e65"></circle><circle r="5" cx="82.12" cy="674.46" fill="#132e65"></circle><circle r="5" cx="229.93" cy="345.54" fill="#132e65"></circle><circle r="5" cx="238.35" cy="509.56" fill="#132e65"></circle><circle r="5" cx="261.42" cy="682.72" fill="#132e65"></circle><circle r="5" cx="403.61" cy="376.83" fill="#132e65"></circle><circle r="5" cx="371.82" cy="537.95" fill="#132e65"></circle><circle r="5" cx="367.25" cy="710.4" fill="#132e65"></circle><circle r="5" cx="536.35" cy="351.68" fill="#132e65"></circle><circle r="5" cx="530.25" cy="536.68" fill="#132e65"></circle><circle r="5" cx="517.76" cy="702.43" fill="#132e65"></circle><circle r="5" cx="697.47" cy="261.19" fill="#132e65"></circle><circle r="5" cx="689.9" cy="403.73" fill="#132e65"></circle><circle r="5" cx="679.48" cy="669.32" fill="#132e65"></circle><circle r="5" cx="837.23" cy="86.83" fill="#132e65"></circle><circle r="5" cx="840.66" cy="237.77" fill="#132e65"></circle><circle r="5" cx="813.91" cy="365.2" fill="#132e65"></circle><circle r="5" cx="856.7" cy="506.47" fill="#132e65"></circle><circle r="5" cx="822.95" cy="684.02" fill="#132e65"></circle><circle r="5" cx="963.84" cy="-44.92" fill="#132e65"></circle><circle r="5" cx="965.41" cy="99.75" fill="#132e65"></circle><circle r="5" cx="977.3" cy="378.04" fill="#132e65"></circle><circle r="5" cx="975.78" cy="543.77" fill="#132e65"></circle><circle r="5" cx="979.08" cy="639.99" fill="#132e65"></circle><circle r="5" cx="1115.39" cy="-61.65" fill="#132e65"></circle><circle r="5" cx="1099.06" cy="87.39" fill="#132e65"></circle><circle r="5" cx="1147.31" cy="239.65" fill="#132e65"></circle><circle r="5" cx="1143.78" cy="342.37" fill="#132e65"></circle><circle r="5" cx="1116.64" cy="672.99" fill="#132e65"></circle><circle r="5" cx="1299.94" cy="-39.18" fill="#132e65"></circle><circle r="5" cx="1274.62" cy="88.73" fill="#132e65"></circle><circle r="5" cx="1279.63" cy="257.7" fill="#132e65"></circle><circle r="5" cx="1298.81" cy="353.21" fill="#132e65"></circle><circle r="5" cx="1302" cy="642.55" fill="#132e65"></circle><circle r="5" cx="1388.47" cy="-44.32" fill="#132e65"></circle><circle r="5" cx="1414.63" cy="53.85" fill="#132e65"></circle><circle r="5" cx="1411.99" cy="212.58" fill="#132e65"></circle><circle r="5" cx="1421.22" cy="401.4" fill="#132e65"></circle><circle r="5" cx="1407.1" cy="547.02" fill="#132e65"></circle><circle r="5" cx="1579.43" cy="-59.53" fill="#132e65"></circle><circle r="5" cx="1565.4" cy="74.16" fill="#132e65"></circle><circle r="5" cx="1545.33" cy="239.97" fill="#132e65"></circle><circle r="5" cx="1561.41" cy="355.62" fill="#132e65"></circle><circle r="5" cx="1605.94" cy="496.38" fill="#132e65"></circle><circle r="5" cx="1598.2" cy="683.27" fill="#132e65"></circle><path d="M110.93 487.71L110.93 487.71" stroke="hsl(228.5, 77.2%, 51.5%)" stroke-width="1.5"></path><path d="M110.93 487.71L209.15 547.06" stroke="hsl(228.5, 77.2%, 51.5%)" stroke-width="1.5"></path><path d="M110.93 487.71L-86.83 508.87" stroke="hsl(228.5, 77.2%, 51.5%)" stroke-width="1.5"></path><path d="M110.93 487.71L199.32 673.23" stroke="hsl(228.5, 77.2%, 51.5%)" stroke-width="1.5"></path><path d="M110.93 487.71L44.45 708.15" stroke="hsl(228.5, 77.2%, 51.5%)" stroke-width="1.5"></path><path d="M1308.34 548.8L1308.34 548.8" stroke="hsl(228.5, 77.2%, 51.5%)" stroke-width="1.5"></path><path d="M1308.34 548.8L1406.21 658.18" stroke="hsl(228.5, 77.2%, 51.5%)" stroke-width="1.5"></path><path d="M1308.34 548.8L1456.05 534.47" stroke="hsl(228.5, 77.2%, 51.5%)" stroke-width="1.5"></path><path d="M1444.22 75.73L1444.22 75.73" stroke="hsl(228.5, 77.2%, 51.5%)" stroke-width="1.5"></path><path d="M1444.22 75.73L1571.15 44.45" stroke="hsl(228.5, 77.2%, 51.5%)" stroke-width="1.5"></path><path d="M1444.22 75.73L1438.62 211.75" stroke="hsl(228.5, 77.2%, 51.5%)" stroke-width="1.5"></path><path d="M1444.22 75.73L1424.46 -71.23" stroke="hsl(228.5, 77.2%, 51.5%)" stroke-width="1.5"></path><path d="M1444.22 75.73L1285.63 93.16" stroke="hsl(228.5, 77.2%, 51.5%)" stroke-width="1.5"></path><path d="M1444.22 75.73L1301.62 -47.61" stroke="hsl(228.5, 77.2%, 51.5%)" stroke-width="1.5"></path><path d="M1438.62 211.75L1438.62 211.75" stroke="hsl(228.5, 77.2%, 51.5%)" stroke-width="1.5"></path><path d="M1438.62 211.75L1398.39 354.84" stroke="hsl(228.5, 77.2%, 51.5%)" stroke-width="1.5"></path><path d="M1438.62 211.75L1262.78 238.87" stroke="hsl(228.5, 77.2%, 51.5%)" stroke-width="1.5"></path><path d="M1438.62 211.75L1285.63 93.16" stroke="hsl(228.5, 77.2%, 51.5%)" stroke-width="1.5"></path><path d="M1438.62 211.75L1303.06 360.44" stroke="hsl(228.5, 77.2%, 51.5%)" stroke-width="1.5"></path><path d="M-86.83 508.87L-86.83 508.87" stroke="hsl(228.5, 77.2%, 51.5%)" stroke-width="1.5"></path><path d="M-86.83 508.87L-102.3 696.1" stroke="hsl(228.5, 77.2%, 51.5%)" stroke-width="1.5"></path><path d="M-86.83 508.87L44.45 708.15" stroke="hsl(228.5, 77.2%, 51.5%)" stroke-width="1.5"></path><path d="M-86.83 508.87L209.15 547.06" stroke="hsl(228.5, 77.2%, 51.5%)" stroke-width="1.5"></path><path d="M-86.83 508.87L199.32 673.23" stroke="hsl(228.5, 77.2%, 51.5%)" stroke-width="1.5"></path><path d="M-102.3 696.1L-102.3 696.1" stroke="hsl(228.5, 77.2%, 51.5%)" stroke-width="1.5"></path><path d="M-102.3 696.1L44.45 708.15" stroke="hsl(228.5, 77.2%, 51.5%)" stroke-width="1.5"></path><path d="M44.45 708.15L44.45 708.15" stroke="hsl(228.5, 77.2%, 51.5%)" stroke-width="1.5"></path><path d="M44.45 708.15L199.32 673.23" stroke="hsl(228.5, 77.2%, 51.5%)" stroke-width="1.5"></path><path d="M44.45 708.15L209.15 547.06" stroke="hsl(228.5, 77.2%, 51.5%)" stroke-width="1.5"></path><path d="M209.15 547.06L209.15 547.06" stroke="hsl(228.5, 77.2%, 51.5%)" stroke-width="1.5"></path><path d="M209.15 547.06L199.32 673.23" stroke="hsl(228.5, 77.2%, 51.5%)" stroke-width="1.5"></path><path d="M209.15 547.06L409.93 561.16" stroke="hsl(228.5, 77.2%, 51.5%)" stroke-width="1.5"></path><path d="M209.15 547.06L411.53 643.29" stroke="hsl(228.5, 77.2%, 51.5%)" stroke-width="1.5"></path><path d="M199.32 673.23L199.32 673.23" stroke="hsl(228.5, 77.2%, 51.5%)" stroke-width="1.5"></path><path d="M199.32 673.23L411.53 643.29" stroke="hsl(228.5, 77.2%, 51.5%)" stroke-width="1.5"></path><path d="M199.32 673.23L409.93 561.16" stroke="hsl(228.5, 77.2%, 51.5%)" stroke-width="1.5"></path><path d="M199.32 673.23L-102.3 696.1" stroke="hsl(228.5, 77.2%, 51.5%)" stroke-width="1.5"></path><path d="M409.93 561.16L409.93 561.16" stroke="hsl(228.5, 77.2%, 51.5%)" stroke-width="1.5"></path><path d="M409.93 561.16L411.53 643.29" stroke="hsl(228.5, 77.2%, 51.5%)" stroke-width="1.5"></path><path d="M411.53 643.29L411.53 643.29" stroke="hsl(228.5, 77.2%, 51.5%)" stroke-width="1.5"></path><path d="M411.53 643.29L513.54 651.68" stroke="hsl(228.5, 77.2%, 51.5%)" stroke-width="1.5"></path><path d="M411.53 643.29L531.95 546.19" stroke="hsl(228.5, 77.2%, 51.5%)" stroke-width="1.5"></path><path d="M531.95 546.19L531.95 546.19" stroke="hsl(228.5, 77.2%, 51.5%)" stroke-width="1.5"></path><path d="M531.95 546.19L513.54 651.68" stroke="hsl(228.5, 77.2%, 51.5%)" stroke-width="1.5"></path><path d="M531.95 546.19L651.86 558.37" stroke="hsl(228.5, 77.2%, 51.5%)" stroke-width="1.5"></path><path d="M513.54 651.68L513.54 651.68" stroke="hsl(228.5, 77.2%, 51.5%)" stroke-width="1.5"></path><path d="M513.54 651.68L409.93 561.16" stroke="hsl(228.5, 77.2%, 51.5%)" stroke-width="1.5"></path><path d="M513.54 651.68L651.86 558.37" stroke="hsl(228.5, 77.2%, 51.5%)" stroke-width="1.5"></path><path d="M513.54 651.68L645.31 404.38" stroke="hsl(228.5, 77.2%, 51.5%)" stroke-width="1.5"></path><path d="M645.31 404.38L645.31 404.38" stroke="hsl(228.5, 77.2%, 51.5%)" stroke-width="1.5"></path><path d="M645.31 404.38L793.86 395.76" stroke="hsl(228.5, 77.2%, 51.5%)" stroke-width="1.5"></path><path d="M645.31 404.38L651.86 558.37" stroke="hsl(228.5, 77.2%, 51.5%)" stroke-width="1.5"></path><path d="M645.31 404.38L789.36 510.37" stroke="hsl(228.5, 77.2%, 51.5%)" stroke-width="1.5"></path><path d="M645.31 404.38L531.95 546.19" stroke="hsl(228.5, 77.2%, 51.5%)" stroke-width="1.5"></path><path d="M645.31 404.38L409.93 561.16" stroke="hsl(228.5, 77.2%, 51.5%)" stroke-width="1.5"></path><path d="M651.86 558.37L651.86 558.37" stroke="hsl(228.5, 77.2%, 51.5%)" stroke-width="1.5"></path><path d="M651.86 558.37L789.36 510.37" stroke="hsl(228.5, 77.2%, 51.5%)" stroke-width="1.5"></path><path d="M793.86 395.76L793.86 395.76" stroke="hsl(228.5, 77.2%, 51.5%)" stroke-width="1.5"></path><path d="M793.86 395.76L789.36 510.37" stroke="hsl(228.5, 77.2%, 51.5%)" stroke-width="1.5"></path><path d="M789.36 510.37L789.36 510.37" stroke="hsl(228.5, 77.2%, 51.5%)" stroke-width="1.5"></path><path d="M854.73 669.76L854.73 669.76" stroke="hsl(228.5, 77.2%, 51.5%)" stroke-width="1.5"></path><path d="M854.73 669.76L994.01 708.25" stroke="hsl(228.5, 77.2%, 51.5%)" stroke-width="1.5"></path><path d="M854.73 669.76L789.36 510.37" stroke="hsl(228.5, 77.2%, 51.5%)" stroke-width="1.5"></path><path d="M854.73 669.76L941.64 501.57" stroke="hsl(228.5, 77.2%, 51.5%)" stroke-width="1.5"></path><path d="M854.73 669.76L651.86 558.37" stroke="hsl(228.5, 77.2%, 51.5%)" stroke-width="1.5"></path><path d="M1002.89 225.87L1002.89 225.87" stroke="hsl(228.5, 77.2%, 51.5%)" stroke-width="1.5"></path><path d="M1002.89 225.87L1115.53 207.52" stroke="hsl(228.5, 77.2%, 51.5%)" stroke-width="1.5"></path><path d="M960.6 338.07L960.6 338.07" stroke="hsl(228.5, 77.2%, 51.5%)" stroke-width="1.5"></path><path d="M960.6 338.07L1002.89 225.87" stroke="hsl(228.5, 77.2%, 51.5%)" stroke-width="1.5"></path><path d="M960.6 338.07L941.64 501.57" stroke="hsl(228.5, 77.2%, 51.5%)" stroke-width="1.5"></path><path d="M960.6 338.07L1118.93 399.42" stroke="hsl(228.5, 77.2%, 51.5%)" stroke-width="1.5"></path><path d="M960.6 338.07L793.86 395.76" stroke="hsl(228.5, 77.2%, 51.5%)" stroke-width="1.5"></path><path d="M960.6 338.07L1115.53 207.52" stroke="hsl(228.5, 77.2%, 51.5%)" stroke-width="1.5"></path><path d="M941.64 501.57L941.64 501.57" stroke="hsl(228.5, 77.2%, 51.5%)" stroke-width="1.5"></path><path d="M941.64 501.57L789.36 510.37" stroke="hsl(228.5, 77.2%, 51.5%)" stroke-width="1.5"></path><path d="M941.64 501.57L793.86 395.76" stroke="hsl(228.5, 77.2%, 51.5%)" stroke-width="1.5"></path><path d="M941.64 501.57L1129.52 549.88" stroke="hsl(228.5, 77.2%, 51.5%)" stroke-width="1.5"></path><path d="M994.01 708.25L994.01 708.25" stroke="hsl(228.5, 77.2%, 51.5%)" stroke-width="1.5"></path><path d="M994.01 708.25L1104.5 684.82" stroke="hsl(228.5, 77.2%, 51.5%)" stroke-width="1.5"></path><path d="M994.01 708.25L1129.52 549.88" stroke="hsl(228.5, 77.2%, 51.5%)" stroke-width="1.5"></path><path d="M1158.55 -111.09L1158.55 -111.09" stroke="hsl(228.5, 77.2%, 51.5%)" stroke-width="1.5"></path><path d="M1158.55 -111.09L1301.62 -47.61" stroke="hsl(228.5, 77.2%, 51.5%)" stroke-width="1.5"></path><path d="M1158.55 -111.09L1285.63 93.16" stroke="hsl(228.5, 77.2%, 51.5%)" stroke-width="1.5"></path><path d="M1115.53 207.52L1115.53 207.52" stroke="hsl(228.5, 77.2%, 51.5%)" stroke-width="1.5"></path><path d="M1115.53 207.52L1262.78 238.87" stroke="hsl(228.5, 77.2%, 51.5%)" stroke-width="1.5"></path><path d="M1115.53 207.52L1118.93 399.42" stroke="hsl(228.5, 77.2%, 51.5%)" stroke-width="1.5"></path><path d="M1115.53 207.52L1285.63 93.16" stroke="hsl(228.5, 77.2%, 51.5%)" stroke-width="1.5"></path><path d="M1118.93 399.42L1118.93 399.42" stroke="hsl(228.5, 77.2%, 51.5%)" stroke-width="1.5"></path><path d="M1118.93 399.42L1129.52 549.88" stroke="hsl(228.5, 77.2%, 51.5%)" stroke-width="1.5"></path><path d="M1118.93 399.42L1303.06 360.44" stroke="hsl(228.5, 77.2%, 51.5%)" stroke-width="1.5"></path><path d="M1129.52 549.88L1129.52 549.88" stroke="hsl(228.5, 77.2%, 51.5%)" stroke-width="1.5"></path><path d="M1129.52 549.88L1104.5 684.82" stroke="hsl(228.5, 77.2%, 51.5%)" stroke-width="1.5"></path><path d="M1104.5 684.82L1104.5 684.82" stroke="hsl(228.5, 77.2%, 51.5%)" stroke-width="1.5"></path><path d="M1104.5 684.82L1250.78 709.65" stroke="hsl(228.5, 77.2%, 51.5%)" stroke-width="1.5"></path><path d="M1104.5 684.82L1308.34 548.8" stroke="hsl(228.5, 77.2%, 51.5%)" stroke-width="1.5"></path><path d="M1104.5 684.82L941.64 501.57" stroke="hsl(228.5, 77.2%, 51.5%)" stroke-width="1.5"></path><path d="M1104.5 684.82L854.73 669.76" stroke="hsl(228.5, 77.2%, 51.5%)" stroke-width="1.5"></path><path d="M1301.62 -47.61L1301.62 -47.61" stroke="hsl(228.5, 77.2%, 51.5%)" stroke-width="1.5"></path><path d="M1301.62 -47.61L1424.46 -71.23" stroke="hsl(228.5, 77.2%, 51.5%)" stroke-width="1.5"></path><path d="M1301.62 -47.61L1285.63 93.16" stroke="hsl(228.5, 77.2%, 51.5%)" stroke-width="1.5"></path><path d="M1285.63 93.16L1285.63 93.16" stroke="hsl(228.5, 77.2%, 51.5%)" stroke-width="1.5"></path><path d="M1285.63 93.16L1262.78 238.87" stroke="hsl(228.5, 77.2%, 51.5%)" stroke-width="1.5"></path><path d="M1262.78 238.87L1262.78 238.87" stroke="hsl(228.5, 77.2%, 51.5%)" stroke-width="1.5"></path><path d="M1262.78 238.87L1303.06 360.44" stroke="hsl(228.5, 77.2%, 51.5%)" stroke-width="1.5"></path><path d="M1303.06 360.44L1303.06 360.44" stroke="hsl(228.5, 77.2%, 51.5%)" stroke-width="1.5"></path><path d="M1303.06 360.44L1398.39 354.84" stroke="hsl(228.5, 77.2%, 51.5%)" stroke-width="1.5"></path><path d="M1303.06 360.44L1308.34 548.8" stroke="hsl(228.5, 77.2%, 51.5%)" stroke-width="1.5"></path><path d="M1303.06 360.44L1456.05 534.47" stroke="hsl(228.5, 77.2%, 51.5%)" stroke-width="1.5"></path><path d="M1250.78 709.65L1250.78 709.65" stroke="hsl(228.5, 77.2%, 51.5%)" stroke-width="1.5"></path><path d="M1250.78 709.65L1406.21 658.18" stroke="hsl(228.5, 77.2%, 51.5%)" stroke-width="1.5"></path><path d="M1250.78 709.65L1308.34 548.8" stroke="hsl(228.5, 77.2%, 51.5%)" stroke-width="1.5"></path><path d="M1250.78 709.65L1129.52 549.88" stroke="hsl(228.5, 77.2%, 51.5%)" stroke-width="1.5"></path><path d="M1424.46 -71.23L1424.46 -71.23" stroke="hsl(228.5, 77.2%, 51.5%)" stroke-width="1.5"></path><path d="M1424.46 -71.23L1587.31 -69.82" stroke="hsl(228.5, 77.2%, 51.5%)" stroke-width="1.5"></path><path d="M1398.39 354.84L1398.39 354.84" stroke="hsl(228.5, 77.2%, 51.5%)" stroke-width="1.5"></path><path d="M1398.39 354.84L1566.32 397.03" stroke="hsl(228.5, 77.2%, 51.5%)" stroke-width="1.5"></path><path d="M1398.39 354.84L1262.78 238.87" stroke="hsl(228.5, 77.2%, 51.5%)" stroke-width="1.5"></path><path d="M1456.05 534.47L1456.05 534.47" stroke="hsl(228.5, 77.2%, 51.5%)" stroke-width="1.5"></path><path d="M1456.05 534.47L1406.21 658.18" stroke="hsl(228.5, 77.2%, 51.5%)" stroke-width="1.5"></path><path d="M1456.05 534.47L1610.58 522.57" stroke="hsl(228.5, 77.2%, 51.5%)" stroke-width="1.5"></path><path d="M1456.05 534.47L1570.14 661.85" stroke="hsl(228.5, 77.2%, 51.5%)" stroke-width="1.5"></path><path d="M1456.05 534.47L1566.32 397.03" stroke="hsl(228.5, 77.2%, 51.5%)" stroke-width="1.5"></path><path d="M1456.05 534.47L1398.39 354.84" stroke="hsl(228.5, 77.2%, 51.5%)" stroke-width="1.5"></path><path d="M1406.21 658.18L1406.21 658.18" stroke="hsl(228.5, 77.2%, 51.5%)" stroke-width="1.5"></path><path d="M1406.21 658.18L1570.14 661.85" stroke="hsl(228.5, 77.2%, 51.5%)" stroke-width="1.5"></path><path d="M1587.31 -69.82L1587.31 -69.82" stroke="hsl(228.5, 77.2%, 51.5%)" stroke-width="1.5"></path><path d="M1587.31 -69.82L1571.15 44.45" stroke="hsl(228.5, 77.2%, 51.5%)" stroke-width="1.5"></path><path d="M1571.15 44.45L1571.15 44.45" stroke="hsl(228.5, 77.2%, 51.5%)" stroke-width="1.5"></path><path d="M1571.15 44.45L1424.46 -71.23" stroke="hsl(228.5, 77.2%, 51.5%)" stroke-width="1.5"></path><path d="M1566.32 397.03L1566.32 397.03" stroke="hsl(228.5, 77.2%, 51.5%)" stroke-width="1.5"></path><path d="M1566.32 397.03L1610.58 522.57" stroke="hsl(228.5, 77.2%, 51.5%)" stroke-width="1.5"></path><path d="M1610.58 522.57L1610.58 522.57" stroke="hsl(228.5, 77.2%, 51.5%)" stroke-width="1.5"></path><path d="M1610.58 522.57L1570.14 661.85" stroke="hsl(228.5, 77.2%, 51.5%)" stroke-width="1.5"></path><path d="M1610.58 522.57L1406.21 658.18" stroke="hsl(228.5, 77.2%, 51.5%)" stroke-width="1.5"></path><path d="M1610.58 522.57L1398.39 354.84" stroke="hsl(228.5, 77.2%, 51.5%)" stroke-width="1.5"></path><path d="M1610.58 522.57L1308.34 548.8" stroke="hsl(228.5, 77.2%, 51.5%)" stroke-width="1.5"></path><path d="M1570.14 661.85L1570.14 661.85" stroke="hsl(228.5, 77.2%, 51.5%)" stroke-width="1.5"></path><path d="M1570.14 661.85L1566.32 397.03" stroke="hsl(228.5, 77.2%, 51.5%)" stroke-width="1.5"></path><path d="M1570.14 661.85L1308.34 548.8" stroke="hsl(228.5, 77.2%, 51.5%)" stroke-width="1.5"></path><circle r="25" cx="110.93" cy="487.71" fill="url(#SvgjsRadialGradient1003)"></circle><circle r="25" cx="1308.34" cy="548.8" fill="url(#SvgjsRadialGradient1003)"></circle><circle r="25" cx="1444.22" cy="75.73" fill="url(#SvgjsRadialGradient1003)"></circle><circle r="25" cx="1438.62" cy="211.75" fill="url(#SvgjsRadialGradient1003)"></circle><circle r="5" cx="-86.83" cy="508.87" fill="#8b9ad9"></circle><circle r="5" cx="-102.3" cy="696.1" fill="#8b9ad9"></circle><circle r="5" cx="44.45" cy="708.15" fill="#8b9ad9"></circle><circle r="5" cx="209.15" cy="547.06" fill="#8b9ad9"></circle><circle r="5" cx="199.32" cy="673.23" fill="#8b9ad9"></circle><circle r="5" cx="409.93" cy="561.16" fill="#8b9ad9"></circle><circle r="5" cx="411.53" cy="643.29" fill="#8b9ad9"></circle><circle r="5" cx="531.95" cy="546.19" fill="#8b9ad9"></circle><circle r="5" cx="513.54" cy="651.68" fill="#8b9ad9"></circle><circle r="5" cx="645.31" cy="404.38" fill="#8b9ad9"></circle><circle r="5" cx="651.86" cy="558.37" fill="#8b9ad9"></circle><circle r="5" cx="793.86" cy="395.76" fill="#8b9ad9"></circle><circle r="5" cx="789.36" cy="510.37" fill="#8b9ad9"></circle><circle r="5" cx="854.73" cy="669.76" fill="#8b9ad9"></circle><circle r="5" cx="1002.89" cy="225.87" fill="#8b9ad9"></circle><circle r="5" cx="960.6" cy="338.07" fill="#8b9ad9"></circle><circle r="5" cx="941.64" cy="501.57" fill="#8b9ad9"></circle><circle r="5" cx="994.01" cy="708.25" fill="#8b9ad9"></circle><circle r="5" cx="1158.55" cy="-111.09" fill="#8b9ad9"></circle><circle r="5" cx="1115.53" cy="207.52" fill="#8b9ad9"></circle><circle r="5" cx="1118.93" cy="399.42" fill="#8b9ad9"></circle><circle r="5" cx="1129.52" cy="549.88" fill="#8b9ad9"></circle><circle r="5" cx="1104.5" cy="684.82" fill="#8b9ad9"></circle><circle r="5" cx="1301.62" cy="-47.61" fill="#8b9ad9"></circle><circle r="5" cx="1285.63" cy="93.16" fill="#8b9ad9"></circle><circle r="5" cx="1262.78" cy="238.87" fill="#8b9ad9"></circle><circle r="5" cx="1303.06" cy="360.44" fill="#8b9ad9"></circle><circle r="5" cx="1250.78" cy="709.65" fill="#8b9ad9"></circle><circle r="5" cx="1424.46" cy="-71.23" fill="#8b9ad9"></circle><circle r="5" cx="1398.39" cy="354.84" fill="#8b9ad9"></circle><circle r="5" cx="1456.05" cy="534.47" fill="#8b9ad9"></circle><circle r="5" cx="1406.21" cy="658.18" fill="#8b9ad9"></circle><circle r="5" cx="1587.31" cy="-69.82" fill="#8b9ad9"></circle><circle r="5" cx="1571.15" cy="44.45" fill="#8b9ad9"></circle><circle r="5" cx="1566.32" cy="397.03" fill="#8b9ad9"></circle><circle r="5" cx="1610.58" cy="522.57" fill="#8b9ad9"></circle><circle r="5" cx="1570.14" cy="661.85" fill="#8b9ad9"></circle></g><defs><mask id="SvgjsMask1002"><rect width="1440" height="560" fill="#ffffff"></rect></mask><radialGradient id="SvgjsRadialGradient1003"><stop stop-color="#ffffff" offset="0.1"></stop><stop stop-color="#1735b3" offset="0.2"></stop><stop stop-color="rgba(23, 53, 179, 0)" offset="1"></stop></radialGradient></defs></svg>