<svg width="867" height="714" viewBox="0 0 867 714" fill="none" xmlns="http://www.w3.org/2000/svg">
<path d="M387.181 343.232C449.023 334.88 492.156 281.556 483.521 224.128C474.886 166.701 417.754 126.917 355.912 135.269C294.069 143.621 250.936 196.945 259.571 254.373C268.206 311.8 325.339 351.584 387.181 343.232Z" fill="#DC952D"/>
<path d="M397.125 342.234C458.967 333.883 502.1 280.558 493.465 223.131C484.83 165.704 427.698 125.92 365.855 134.272C304.013 142.623 260.88 195.948 269.515 253.375C278.15 310.803 335.282 350.586 397.125 342.234Z" fill="#FCC84E"/>
<path d="M269.254 249.723C317.327 212.2 365.4 174.732 413.531 137.209C420.432 139.149 428.62 142.087 437.334 146.576C442.363 149.181 446.75 151.897 450.551 154.557L282.529 288.023C282.529 288.023 270.189 275.164 269.254 249.723Z" fill="#FEF04F"/>
<path d="M320.368 326.932C375.576 283.755 430.784 240.523 485.933 197.346C488.273 202.722 490.553 209.207 492.191 216.634C493.01 220.459 493.594 224.117 494.004 227.498C446.808 264.966 399.612 302.489 352.416 339.957C348.79 339.125 344.814 337.961 340.661 336.52C332.532 333.638 325.807 330.202 320.368 326.932Z" fill="#F59E1B"/>
<path d="M382.36 319.394C429.258 319.394 467.277 283.362 467.277 238.915C467.277 194.469 429.258 158.437 382.36 158.437C335.461 158.437 297.442 194.469 297.442 238.915C297.442 283.362 335.461 319.394 382.36 319.394Z" fill="#D2753F"/>
<path d="M398.578 315.191C442.961 309.197 473.803 270.165 467.464 228.012C461.126 185.858 420.009 156.544 375.626 162.538C331.243 168.532 300.401 207.564 306.739 249.718C313.078 291.871 354.195 321.185 398.578 315.191Z" fill="#FDAA40"/>
<path d="M381.892 205.217C381.892 205.217 389.378 207.267 393.472 209.651C397.565 212.034 405.344 209.595 403.589 202.445C401.835 195.295 394.115 192.635 389.261 191.748C384.407 190.861 382.126 190.861 382.126 190.861L380.781 190.584L379.436 181.827C379.436 181.827 376.862 179.721 372.067 179.277C367.271 178.834 365.166 184.044 365.166 184.044L366.92 193.688C366.92 193.688 343.176 200.117 346.744 220.625C350.311 241.132 371.365 240.301 371.365 240.301C371.365 240.301 399.963 235.812 402.946 252.218C405.928 268.624 390.723 274.665 383.646 273.335C376.57 272.005 368.909 272.725 363.177 262.859C357.446 252.994 348.674 262.804 348.615 264.688C348.557 266.573 354.873 280.318 365.224 285.251C365.224 285.251 370.605 287.579 374.698 287.69C378.792 287.745 380.02 287.302 380.02 287.302L381.775 297.722C381.775 297.722 382.828 299.274 388.617 299.884C394.407 300.493 396.63 295.893 396.63 295.893L395.168 284.974C395.168 284.974 413.239 282.702 418.795 258.314C424.351 233.927 396.279 225.447 385.459 225.946C374.64 226.5 362.242 229.715 362.417 215.47C362.476 213.42 368.207 203.831 381.892 205.217Z" fill="#D2753F"/>
<path d="M387.506 204.718C387.506 204.718 394.992 206.769 399.086 209.152C403.18 211.535 410.958 209.096 409.203 201.947C407.449 194.797 399.729 192.136 394.875 191.249C390.021 190.363 387.74 190.363 387.74 190.363L386.395 190.085L385.05 181.328C385.05 181.328 382.477 179.222 377.681 178.779C372.885 178.335 370.78 183.545 370.78 183.545L372.535 193.189C372.535 193.189 348.79 199.619 352.358 220.126C355.925 240.634 376.979 239.802 376.979 239.802C376.979 239.802 405.577 235.313 408.56 251.719C411.543 268.125 396.337 274.166 389.261 272.836C382.184 271.506 374.523 272.226 368.792 262.361C363.06 252.495 354.288 262.305 354.229 264.19C354.171 266.074 360.487 279.82 370.839 284.753C370.839 284.753 376.219 287.08 380.313 287.191C384.407 287.247 385.635 286.803 385.635 286.803L387.389 297.223C387.389 297.223 388.442 298.775 394.232 299.385C400.022 299.995 402.244 295.394 402.244 295.394L400.782 284.475C400.782 284.475 418.853 282.203 424.409 257.816C430.023 233.484 401.893 224.948 391.074 225.447C380.254 226.001 367.856 229.216 368.031 214.972C368.031 212.921 373.763 203.332 387.506 204.718Z" fill="#FECB51"/>
<path d="M459.031 608.605L463.184 627.395L464.353 637.094L484.471 635.875C484.471 635.875 482.424 611.266 480.378 605.501C478.331 599.737 459.031 608.605 459.031 608.605Z" fill="#FEABB5"/>
<path d="M609.45 583.83L626.059 586.601L625.825 606.721L597.812 603.672L603.016 586.601L603.777 582.666L609.45 583.83Z" fill="#FEABB5"/>
<path d="M462.306 142.364C462.832 149.514 463.417 156.664 463.944 163.814C465.523 166.141 467.102 168.469 468.739 170.797C479.91 170.243 491.08 169.744 502.192 169.19L501.548 167.527L490.086 137.265L462.306 142.364Z" fill="#FEABB5"/>
<path d="M465.815 165.365C465.815 165.365 470.669 166.031 477.687 167.195C484.705 168.358 491.665 168.137 494.062 167.693C496.46 167.25 501.373 166.529 501.373 166.529L502.25 169.19C502.25 169.19 476.576 170.354 475.933 170.354C475.289 170.354 469.148 168.248 469.148 168.248L465.815 165.365Z" fill="#FE8D90"/>
<path d="M464.002 163.814C463.827 164.202 463.651 164.7 463.71 165.366C463.885 167.139 465.874 168.303 466.458 168.636C466.692 168.802 469.207 171.85 474.237 177.892C474.237 177.892 479.091 183.767 484.179 194.797C489.033 205.327 494.823 230.38 492.951 262.749C492.483 271.062 489.852 303.708 475.582 335.356C473.009 341.065 470.728 345.444 469.207 348.27C461.604 362.626 445.521 388.731 445.521 388.731C445.521 388.731 449.206 397.322 485.173 393.664C521.14 390.006 528.217 381.471 528.217 381.471L528.567 380.14L524.532 273.612L503.127 167.749C498.917 168.802 492.542 169.91 484.764 169.356C475.348 168.691 468.213 165.809 464.002 163.814Z" fill="white"/>
<path d="M440.492 352.039C440.492 352.039 369.026 458.734 365.926 483.62C362.827 508.506 373.704 514.603 378.383 519.204C383.062 523.804 458.68 614.758 458.68 614.758C458.68 614.758 470.845 616.808 479.676 614.758C488.507 612.707 489.793 608.384 489.793 608.384C489.793 608.384 430.491 506.234 429.088 492.156C427.509 476.914 465.991 423.151 465.991 423.151C465.991 423.151 488.916 533.282 490.437 540.154C491.957 547.027 598.981 613.704 598.981 613.704C598.981 613.704 605.999 609.658 612.725 598.185C619.45 586.768 619.45 577.844 619.45 577.844L533.948 518.982C533.948 518.982 546.405 435.677 546.405 404.638C546.405 404.638 545.879 392.722 545.118 388.399C544.358 384.076 502.66 357.139 473.886 350.82C445.112 344.446 440.492 352.039 440.492 352.039Z" fill="#4F2926"/>
<path d="M479.325 65.3775C478.565 64.269 455.932 81.7835 448.446 101.293C440.96 120.803 445.697 135.879 456.692 140.258C467.687 144.636 480.553 141.588 484.647 139.814C488.799 138.041 499.326 133.052 499.794 131.778C500.262 130.447 504.356 133.219 510.613 128.84C516.871 124.461 516.579 119.584 512.426 114.208L509.97 111.104C509.97 111.104 516.403 96.6931 516.754 91.7047C517.105 86.7719 513.655 85.3308 509.853 84.1114C506.169 82.892 489.676 81.1184 479.325 65.3775Z" fill="#FEABB5"/>
<path d="M476.576 64.269C476.576 64.269 475.64 66.7078 478.096 70.6984C480.553 74.6891 488.039 81.0076 494.589 83.1138C501.139 85.22 511.783 85.3308 512.192 88.8227C512.601 92.3145 510.847 99.797 510.262 101.626C509.619 103.455 510.262 109.496 510.262 109.496C510.262 109.496 518.157 96.1943 518.157 94.6424C518.157 93.0904 519.912 86.4948 514.18 83.2801C508.449 80.0654 497.922 79.0123 497.513 78.7906C497.045 78.6243 476.576 64.269 476.576 64.269Z" fill="#FE8D90"/>
<path d="M483.886 34.7825C483.886 34.7825 473.593 42.3758 472.658 55.0129C471.78 67.6499 488.331 77.9037 494.296 80.0653C500.262 82.2823 510.438 84.3331 510.438 84.3331C510.438 84.3331 515.818 86.9935 514.941 93.1458C514.064 99.298 508.859 110.771 508.859 110.771C508.859 110.771 516.52 116.868 513.479 124.129C510.438 131.39 501.373 131.611 499.384 130.946C499.384 130.946 493.77 134.826 491.899 135.768C491.899 135.768 495.524 141.255 514.648 135.99C533.772 130.724 541.668 113.82 543.656 108.554C545.644 103.289 547.34 87.2152 537.691 78.1254C528.041 69.0356 521.432 70.7538 522.544 57.2299C523.655 43.706 512.66 43.8169 512.017 43.8169C511.373 43.8169 497.63 46.311 497.63 46.311C497.63 46.311 492.6 43.3735 490.963 38.6068C489.325 33.8402 486.343 32.4546 486.343 32.4546L483.886 34.7825Z" fill="#4F2926"/>
<path d="M513.42 366.284C513.42 366.284 511.373 392.888 521.842 407.022C532.31 421.211 544.358 420.601 544.358 420.601C544.358 420.601 548.042 390.727 542.896 382.579C537.749 374.431 512.368 365.674 512.368 365.674L513.42 366.284Z" stroke="white" stroke-width="3" stroke-miterlimit="10"/>
<path d="M503.069 167.749C503.069 167.749 524.298 161.541 541.96 178.723C559.564 195.85 579.389 222.177 587.928 263.525C596.466 304.872 588.571 340.012 578.746 354.534C568.862 369.055 557.224 380.473 548.276 386.404C539.328 392.334 539.328 392.334 539.328 392.334C539.328 392.334 525.234 381.36 522.076 359.356C518.918 337.352 524.532 326.377 524.532 326.377L502.25 169.19C502.25 169.19 502.016 167.638 503.069 167.749Z" fill="#5670C4"/>
<path d="M506.929 310.581C509.327 309.86 530.556 305.759 544.709 290.184C558.862 274.61 563.072 235.368 559.329 215.747C555.587 196.127 548.276 182.492 538.276 175.73C528.275 168.968 506.929 310.581 506.929 310.581Z" fill="#C92615"/>
<path d="M424.292 331.643C423.941 331.864 415.344 337.241 411.543 336.687C407.741 336.132 395.986 329.758 390.606 332.086C385.225 334.414 384.465 340.234 389.495 343.282C394.524 346.386 398.15 346.885 398.15 346.885C398.15 346.885 385.576 353.37 383.471 352.815C381.366 352.261 378.675 350.155 376.394 351.153C374.172 352.15 369.552 368.944 383.003 375.762C396.454 382.579 408.326 383.798 418.444 380.584C428.503 377.369 438.387 374.653 443.65 370.607C448.913 366.561 449.381 364.344 449.381 364.344L449.03 362.016L424.292 331.643Z" fill="#FEABB5"/>
<path d="M437.042 342.229C436.808 342.839 440.141 363.402 429.439 369.997C418.795 376.593 406.279 379.697 401.367 379.919C396.454 380.14 386.629 377.591 386.629 377.591C386.629 377.591 401.718 385.073 418.912 380.251C418.912 380.251 433.182 376.926 441.779 371.826C450.376 366.727 450.376 361.905 450.376 361.905L437.042 342.229Z" fill="#FE8D90"/>
<path d="M511.783 167.084C511.783 167.084 495.992 173.347 493.945 200.727C491.957 228.107 493.302 256.818 489.267 266.905C485.231 276.993 422.245 325.823 422.245 325.823C422.245 325.823 422.479 340.345 436.164 352.871C449.849 365.397 449.381 363.18 449.381 363.18C449.381 363.18 520.906 326.71 526.579 321.721C542.837 307.643 543.831 288.3 547.75 272.226C552.195 254.102 556.698 224.006 549.036 185.928C545.118 181.384 541.375 178.058 538.51 175.786C533.772 172.072 529.562 169.633 525.409 167.86C519.736 165.476 516.286 165.144 513.362 166.252C512.66 166.585 512.134 166.862 511.783 167.084Z" fill="#F0512A"/>
<path d="M494.355 95.6399C494.355 95.6399 499.677 94.9748 502.367 97.2473C505.057 99.5197 506.519 104.674 506.519 104.674M472.073 76.7952C472.073 76.7952 479.617 80.675 481.313 83.3354C483.009 85.9958 484.53 88.0466 484.237 89.9865C483.945 91.9818 480.787 99.5197 479.149 101.848C477.512 104.175 473.71 108.222 472.775 108.942C471.897 109.663 471.897 109.663 471.897 109.663L472.073 76.7952Z" stroke="#4F2926" stroke-miterlimit="10"/>
<path d="M472.934 93.8232C474.588 90.6371 473.744 87.0354 471.049 85.7786C468.353 84.5218 464.827 86.0857 463.173 89.2718C461.519 92.4578 462.363 96.0595 465.058 97.3164C467.754 98.5732 471.279 97.0092 472.934 93.8232Z" fill="#4F2926"/>
<path d="M500.87 110.487C502.524 107.301 501.68 103.699 498.985 102.442C496.29 101.186 492.764 102.749 491.11 105.936C489.456 109.122 490.3 112.723 492.995 113.98C495.69 115.237 499.216 113.673 500.87 110.487Z" fill="#4F2926"/>
<path d="M456.049 115.87C460.118 115.87 463.417 112.719 463.417 108.831C463.417 104.944 460.118 101.792 456.049 101.792C451.979 101.792 448.68 104.944 448.68 108.831C448.68 112.719 451.979 115.87 456.049 115.87Z" fill="#FE8D90"/>
<path d="M487.98 131.389C492.05 131.389 495.349 128.238 495.349 124.35C495.349 120.463 492.05 117.311 487.98 117.311C483.91 117.311 480.611 120.463 480.611 124.35C480.611 128.238 483.91 131.389 487.98 131.389Z" fill="#FE8D90"/>
<path d="M462.189 115.815C462.189 115.815 464.646 121.524 467.336 123.519C470.026 125.514 474.705 125.792 474.705 125.792" stroke="#4F2926" stroke-miterlimit="10"/>
<path d="M623.193 584.218C621.672 584.329 622.667 604.06 622.667 604.06L612.315 604.337C612.315 604.337 611.029 607.386 612.081 610.933C613.134 614.48 620.62 624.9 620.62 624.9C620.62 624.9 620.386 654.609 621.906 657.657C623.427 660.706 630.445 653.057 634.597 644.466C638.75 635.819 646.645 605.723 648.224 599.127C649.803 592.532 649.803 590.259 649.803 590.259C649.803 590.259 650.563 581.779 623.193 584.218ZM462.833 623.626C462.833 623.626 467.277 634.101 471.371 634.101C475.465 634.101 483.594 625.898 483.594 625.898C483.594 625.898 487.278 624.734 487.863 626.064C488.448 627.395 489.033 656.382 489.033 656.382C489.033 656.382 457.569 654.83 443.182 654.664C428.795 654.498 420.257 651.449 419.087 649.122C417.918 646.849 419.672 644.189 421.602 644.189C423.532 644.189 439.849 641.805 443.241 640.863C446.633 639.921 461.195 622.85 461.195 622.85L462.833 623.626Z" fill="#F0512A"/>
<path d="M462.306 142.087C462.306 142.087 471.137 141.643 475.64 140.258C480.143 138.872 484.179 136.821 484.179 136.821C484.179 136.821 483.302 142.641 474.588 145.468C465.874 148.294 462.891 148.128 462.891 148.128L462.306 142.364V142.087Z" fill="#FE8D90"/>
<path d="M505.233 115.649C505.233 115.649 509.502 118.42 509.034 121.524C508.566 124.628 506.753 125.902 505.116 124.96C503.478 124.018 502.075 121.635 502.835 120.803C503.595 119.972 506.344 118.642 506.636 120.471C506.87 122.244 505.174 122.023 505.174 122.023" stroke="#FE8D90" stroke-miterlimit="10"/>
<path d="M455.288 635.043C456.483 635.043 457.452 634.299 457.452 633.381C457.452 632.462 456.483 631.718 455.288 631.718C454.093 631.718 453.125 632.462 453.125 633.381C453.125 634.299 454.093 635.043 455.288 635.043Z" fill="#F9ECDC"/>
<path d="M451.838 638.868C452.871 638.868 453.709 638.223 453.709 637.427C453.709 636.631 452.871 635.986 451.838 635.986C450.804 635.986 449.966 636.631 449.966 637.427C449.966 638.223 450.804 638.868 451.838 638.868Z" fill="#F9ECDC"/>
<path d="M447.978 642.138C448.914 642.138 449.674 641.493 449.674 640.697C449.674 639.901 448.914 639.256 447.978 639.256C447.041 639.256 446.282 639.901 446.282 640.697C446.282 641.493 447.041 642.138 447.978 642.138Z" fill="#F9ECDC"/>
<path d="M618.327 609.804C618.737 608.74 618.332 607.622 617.422 607.307C616.512 606.992 615.441 607.599 615.031 608.662C614.621 609.726 615.026 610.844 615.936 611.159C616.847 611.475 617.917 610.868 618.327 609.804Z" fill="#F9ECDC"/>
<path d="M620.893 614.188C621.248 613.268 620.896 612.301 620.107 612.028C619.318 611.755 618.392 612.279 618.037 613.199C617.682 614.119 618.034 615.086 618.823 615.36C619.612 615.633 620.539 615.108 620.893 614.188Z" fill="#F9ECDC"/>
<path d="M622.826 618.728C623.148 617.894 622.769 616.997 621.98 616.724C621.191 616.451 620.291 616.905 619.97 617.739C619.648 618.573 620.027 619.47 620.816 619.743C621.605 620.016 622.505 619.562 622.826 618.728Z" fill="#F9ECDC"/>
<path d="M53.7437 561.659C53.7437 561.659 80.0611 577.234 113.279 564.209C113.279 564.209 126.497 558.445 137.199 542.26C147.901 526.076 147.609 526.132 153.75 529.014C159.832 531.896 159.832 586.158 159.832 586.158L168.253 586.656C168.253 586.656 168.253 539.157 160.885 524.691C160.885 524.691 158.838 512.663 153.75 511.666C148.662 510.668 138.486 510.003 120.18 517.707C101.875 525.411 99.8283 514.326 75.6748 523.249C51.5213 532.173 42.6319 545.641 40.0586 555.064C37.4854 564.486 43.3922 574.851 43.3922 574.851C43.3922 574.851 42.5734 568.033 53.7437 561.659Z" fill="#529A74"/>
<path d="M45.322 561.771C46.0823 559.609 52.1645 554.288 90.354 549.466C128.485 544.644 139.948 522.474 145.562 521.753" stroke="#328A5A" stroke-width="3" stroke-miterlimit="10"/>
<path d="M87.0791 449.921C89.126 449.589 92.9274 463.667 115.034 474.752C137.141 485.837 148.369 487.056 155.212 485.615C162.054 484.174 166.908 477.634 169.189 478.632C171.47 479.629 171.47 584.218 171.47 584.218H179.599C179.599 584.218 178.313 476.47 177.318 474.309C176.324 472.147 172.991 464.443 152.873 451.917C132.754 439.39 118.251 425.866 92.8689 431.686C92.8689 431.686 81.6986 435.566 76.0843 443.27C70.4699 450.974 73.8034 455.796 73.8034 455.796C73.8034 455.796 72.8092 452.083 87.0791 449.921Z" fill="#529A74"/>
<path d="M82.2249 444.656C82.2249 444.656 111.993 440.554 131.585 454.3C151.176 468.046 160.826 473.588 160.826 473.588" stroke="#328A5A" stroke-width="3" stroke-miterlimit="10"/>
<path d="M184.629 585.16C182.348 581.169 183.693 454.632 184.629 450.808C185.565 446.984 186.325 441.386 204.455 435.455C222.584 429.525 264.751 393.886 282.296 395.881C299.84 397.876 318.73 414.116 318.38 419.548C317.97 424.98 307.677 422.818 298.554 423.705C289.372 424.592 284.225 436.342 272.236 451.917C260.189 467.491 239.252 473.255 217.672 466.383C196.092 459.51 193.226 455.519 193.226 455.519L189.6 585.881L184.629 585.16Z" fill="#328A5A"/>
<path d="M196.969 586.158C195.682 583.276 206.618 499.86 200.77 470.207C194.922 440.554 196.969 432.628 183.752 427.806C170.534 422.984 141.761 403.696 135.678 384.408C129.596 365.12 128.836 354.256 128.076 353.093C127.315 351.929 126.029 348.27 119.946 354.035C113.864 359.799 111.291 351.651 120.18 340.289C129.07 328.927 137.959 325.823 153.516 335.689C169.072 345.555 194.746 373.046 200.595 387.29C206.443 401.535 200.068 423.206 200.595 429.469C201.121 435.732 210.244 471.426 212.057 496.978C213.812 522.529 206.209 585.936 206.209 585.936L196.969 586.158Z" fill="#529A74"/>
<path d="M196.033 453.912C196.033 453.912 233.228 460.618 245.451 455.02C257.674 449.422 276.33 409.461 287.793 407.299C299.256 405.137 318.321 420.49 318.321 420.49C318.321 420.49 318.73 424.093 306.274 423.76C293.817 423.428 291.419 425.201 282.997 436.952C274.576 448.702 267.148 463.002 248.843 466.937C230.538 470.928 218.491 467.325 208.958 463.667C199.425 460.064 193.109 455.519 193.109 455.519L196.033 453.912Z" fill="#529A74"/>
<path d="M135.152 341.231C135.152 341.231 170.768 377.147 178.663 394.994C186.559 412.841 189.834 423.206 189.834 423.206" stroke="#328A5A" stroke-width="3" stroke-miterlimit="10"/>
<path d="M114.8 353.259C115.034 350.377 126.263 327.209 144.568 341.952C162.873 356.695 162.639 370.663 176.851 382.69C191.12 394.717 196.208 401.978 195.448 410.902C194.688 419.825 195.975 430.91 199.25 435.954C202.583 440.998 203.343 440.776 202.583 440.998C201.823 441.219 199.893 428.194 199.893 428.194C199.893 428.194 208.314 397.101 199.133 383.743C189.951 370.385 163.633 335.135 142.872 330.423C122.052 325.712 114.8 353.259 114.8 353.259ZM329.257 528.182C329.257 528.182 302.94 542.815 269.722 530.566C269.722 530.566 256.504 525.134 245.802 509.892C238.784 499.915 236.503 496.479 233.988 496.036C233.988 496.036 231.766 495.814 229.251 497.366C219.777 503.13 222.175 568.699 223.052 587.543C220.713 587.821 218.374 588.098 216.034 588.375C213.929 571.636 212.993 550.962 215.742 527.573C217.204 514.936 219.543 503.463 222.175 493.264C222.175 493.264 224.222 481.902 229.31 481.015C234.398 480.128 244.574 479.408 262.879 486.669C281.184 493.929 283.231 483.509 307.385 491.879C331.538 500.303 340.428 512.996 343.001 521.864C345.516 530.732 339.667 540.487 339.667 540.487C339.667 540.487 340.428 534.168 329.257 528.182Z" fill="#328A5A"/>
<path d="M336.275 525.633C334.813 522.862 327.795 516.931 294.986 518.317C262.177 519.702 244.34 491.989 239.486 492.156" stroke="#529A74" stroke-width="3" stroke-miterlimit="10"/>
<path d="M232.585 681.379H142.346C138.72 681.379 135.795 678.608 135.795 675.171V590.37C135.795 586.934 138.72 584.162 142.346 584.162H232.585C236.211 584.162 239.135 586.934 239.135 590.37V675.171C239.193 678.552 236.211 681.379 232.585 681.379Z" fill="#FEABB5"/>
<path d="M156.206 680.271C156.615 679.384 171.295 653.666 189.951 637.593C208.665 621.519 239.193 617.363 239.193 617.363L239.603 673.952C239.603 673.952 239.018 681.158 228.725 681.546L156.206 680.271Z" fill="#FE8D90"/>
<path d="M271.417 107.723H116.671C110.472 107.723 105.384 102.956 105.384 97.0256V72.6383C105.384 66.7631 110.414 61.9411 116.671 61.9411H271.417C277.617 61.9411 282.705 66.7077 282.705 72.6383V97.0256C282.705 102.956 277.617 107.723 271.417 107.723Z" fill="#F1CFAA"/>
<path d="M265.861 81.5619H159.539C158.779 81.5619 158.194 81.0076 158.194 80.2871V74.9662C158.194 74.2457 158.779 73.6914 159.539 73.6914H265.861C266.622 73.6914 267.206 74.2457 267.206 74.9662V80.2871C267.206 81.0076 266.563 81.5619 265.861 81.5619ZM266.68 97.1919H160.416C159.656 97.1919 159.071 96.6377 159.071 95.9171V90.5963C159.071 89.8757 159.656 89.3215 160.416 89.3215H266.739C267.499 89.3215 268.084 89.8757 268.084 90.5963V95.9171C268.025 96.6377 267.44 97.1919 266.68 97.1919Z" fill="#F9ECDC"/>
<path d="M135.035 101.349C144.595 101.349 152.346 94.4751 152.346 85.9959C152.346 77.5167 144.595 70.6429 135.035 70.6429C125.474 70.6429 117.724 77.5167 117.724 85.9959C117.724 94.4751 125.474 101.349 135.035 101.349Z" fill="#FAEFE5"/>
<path d="M135.035 70.6429V87.049L117.841 84.7765C117.899 84.7211 118.543 71.3635 135.035 70.6429Z" fill="#E6B78B"/>
<path d="M72.692 213.808C80.7042 211.036 85.9091 211.868 90.5878 212.976C95.2664 214.029 95.2664 220.68 103.279 218.131C111.291 215.581 117.315 211.258 121.174 211.923C125.034 212.588 131.35 217.299 136.614 217.521C141.819 217.743 149.831 213.032 154.51 213.032C159.188 213.032 165.505 217.299 171.879 216.69C178.195 216.025 183.693 211.757 187.553 211.757C191.413 211.757 196.091 213.918 196.091 213.918M69.1245 206.547C69.1245 206.547 81.8153 201.392 87.3127 201.836C92.8101 202.279 95.8513 207.212 100.822 207.822C105.793 208.487 115.151 201.392 123.104 202.445C131.117 203.498 131.117 207.6 137.14 207.822C143.223 208.043 147.609 200.727 157.492 202.002C167.435 203.277 161.879 206.935 171.002 206.935C180.125 206.935 181.47 202.445 188.605 203.055C195.74 203.665 196.852 204.995 196.852 204.995L69.1245 206.547Z" stroke="#E6B78B" stroke-width="4" stroke-miterlimit="10"/>
<path d="M649.978 479.186H611.438C607.578 479.186 604.42 476.193 604.42 472.535V427.585C604.42 423.927 607.578 420.934 611.438 420.934H649.978C653.838 420.934 656.996 423.927 656.996 427.585V472.535C656.996 476.193 653.838 479.186 649.978 479.186Z" fill="#F1CFAA"/>
<path d="M631.03 464.831C619.099 456.406 612.666 446.984 615.181 441.386C615.941 439.723 618.163 436.841 621.731 436.287C626.351 435.566 629.86 439.169 630.211 439.557C630.854 438.836 633.544 436.065 637.872 435.732C638.632 435.677 643.019 435.344 645.592 438.116C645.592 438.116 646.82 439.446 647.229 441.497C648.165 445.931 641.732 454.965 631.03 464.831Z" fill="#F0512A"/>
<path d="M703.432 337.961C711.444 335.19 716.649 336.021 721.328 337.13C726.006 338.183 726.006 344.834 734.018 342.285C742.031 339.735 748.054 335.412 751.914 336.077C755.774 336.742 762.09 341.453 767.354 341.675C772.617 341.897 780.571 337.185 785.25 337.185C789.928 337.185 796.244 341.453 802.619 340.843C808.994 340.234 814.433 335.911 818.292 335.911C822.152 335.911 826.831 338.072 826.831 338.072M699.864 330.645C699.864 330.645 712.555 325.491 718.052 325.934C723.55 326.377 726.591 331.31 731.562 331.92C736.533 332.585 745.89 325.491 753.844 326.544C761.856 327.597 761.856 331.698 767.88 331.92C773.962 332.142 778.349 324.825 788.232 326.1C798.116 327.375 792.618 331.033 801.742 331.033C810.865 331.033 812.21 326.544 819.345 327.153C826.48 327.818 827.591 329.093 827.591 329.093L699.864 330.645Z" stroke="#E6B78B" stroke-width="4" stroke-miterlimit="10"/>
<path d="M692.613 346.164L682.378 341.342L672.377 346.608L674.015 335.911L665.652 328.539L676.939 326.71L681.735 316.844L687.057 326.433L698.402 327.763L690.39 335.523L692.613 346.164Z" fill="#E6B78B"/>
<path d="M230.128 344.169C243.177 344.169 253.756 334.144 253.756 321.777C253.756 309.41 243.177 299.385 230.128 299.385C217.079 299.385 206.501 309.41 206.501 321.777C206.501 334.144 217.079 344.169 230.128 344.169Z" fill="#F1CFAA"/>
<path d="M242.585 329.647L233.287 328.373L226.853 334.857L225.274 326.1L216.736 322.331L225.099 318.174L226.21 309.362L232.936 315.569L242.176 313.851L238.024 321.832L242.585 329.647Z" fill="#FDAA40"/>
<path d="M751.096 246.786H643.019C636.118 246.786 630.562 241.52 630.562 234.98V128.951C630.562 122.411 636.118 117.145 643.019 117.145H751.096C757.997 117.145 763.552 122.411 763.552 128.951V234.925C763.552 241.465 757.997 246.786 751.096 246.786Z" fill="#F1CFAA"/>
<path d="M691.618 143.361C692.203 143.417 691.501 130.226 691.501 130.226L704.894 130.392L704.836 144.137C704.836 144.137 713.784 145.412 716.942 147.962C720.1 150.567 721.562 152.174 721.562 152.174L710.041 163.481C710.041 163.481 700.625 155.666 691.151 161.874C691.151 161.874 686.472 171.13 695.127 173.679C695.127 173.679 704.485 173.458 710.333 175.453C716.181 177.448 728.697 185.984 724.661 201.78C720.626 217.576 706.473 220.902 706.473 220.902L705.128 221.179L705.83 232.541C705.83 232.541 693.198 233.207 692.613 232.929C692.028 232.652 692.379 220.237 692.379 220.237C692.379 220.237 682.671 219.128 674.775 212.921L672.085 209.595L684.484 198.122C684.484 198.122 690.8 205.494 701.385 204.884C711.971 204.219 709.163 191.526 703.958 190.861C698.753 190.196 681.91 191.194 674.074 175.453C666.12 159.767 681.618 142.863 691.618 143.361Z" fill="#DC952D"/>
</svg>
