<svg xmlns="http://www.w3.org/2000/svg" version="1.1" xmlns:xlink="http://www.w3.org/1999/xlink" xmlns:svgjs="http://svgjs.com/svgjs" width="1440" height="560" preserveAspectRatio="none" viewBox="0 0 1440 560"><g mask="url(&quot;#SvgjsMask1006&quot;)" fill="none"><path d="M 0,80 C 57.6,106.6 172.8,221.8 288,213 C 403.2,204.2 460.8,37.6 576,36 C 691.2,34.4 748.8,208.6 864,205 C 979.2,201.4 1036.8,7.2 1152,18 C 1267.2,28.8 1382.4,210.8 1440,259L1440 560L0 560z" fill="rgba(210, 220, 231, 1)"></path><path d="M 0,291 C 96,324 288,440.8 480,456 C 672,471.2 768,359.2 960,367 C 1152,374.8 1344,469.4 1440,495L1440 560L0 560z" fill="rgba(184, 214, 244, 1)"></path></g><defs><mask id="SvgjsMask1006"><rect width="1440" height="560" fill="#ffffff"></rect></mask></defs></svg>